<svg width="179.58mm" height="130.84mm" version="1.1" viewBox="0 0 678.72 494.51" xml:space="preserve"
    xmlns="http://www.w3.org/2000/svg" xmlns:xlink="http://www.w3.org/1999/xlink">
    <defs>
        <pattern id="pattern28" patternTransform="matrix(.41582 1.9563 -1.9563 .41582 0 0)"
            preserveAspectRatio="xMidYMid" xlink:href="#Strips1_2" />
        <pattern id="Strips1_2" width="3" height="1" fill="#000000" patternTransform="translate(0) scale(2)"
            patternUnits="userSpaceOnUse" preserveAspectRatio="xMidYMid">
            <rect y="-.5" width="1" height="2" />
        </pattern>
    </defs>
    <g transform="translate(-71.346 -306.77)">
        <g>
            <path id="drogi_zewnetrzne"
                d="m623.68 801.14-290.78-78.583-261.03-307.63s-1.7195-5.5026 1.0317-6.7062l29.92-24.246s2.9232-6.1904 41.441-17.024c0 0 114.52-42.817 194.31-51.071l298.51 47.803-5.3306-56.057 9.2856-0.85978 23.73 281.49 76.004-278.22 9.2855 3.611-104.89 372.97-14.272 108.85s-0.85977 6.8782-7.2221 5.6745z"
                fill="#442b4e" />
            <path id="bialy_podklad"
                d="m339.95 712.06-254.84-299.37s24.59-24.761 53.134-30.78c0 0 149.26-54.682 199.3-53.478 50.039 1.2037 298.69 46.944 298.69 46.944l19.775 235.75-20.635 69.298s-11.005 64.483-14.444 106.27z"
                fill="#fff" />
            <g id="drogi_wewnetrzne">
                <path
                    d="m328.25 592.39 0.12159 4.6204-25.534 27.236-3.0398-2.7966-3.0398 3.0398 3.5261 3.4045s1.2159 1.2159-0.12159 2.067c-1.3375 0.85113-6.2011 6.5659-6.2011 6.5659l2.7966 3.0398 0.85113-0.85113-0.72954-1.5807 32.829-34.167 5.2284-0.12159 45.718 53.864s1.7023 1.7023 0.85113 4.2557c-0.85113 2.5534-2.675 14.226-2.675 14.226l1.9454 0.60795-0.72955 3.6477 3.7693 0.85113s0.24318-8.2681 6.6875-6.809c6.4443 1.4591 22.981 4.8636 22.981 4.8636s4.4988 1.3375 4.0125 5.5932-0.24318 4.1341-0.24318 4.1341l5.8363 1.5807 1.4591-8.3897s1.8239-4.8636 6.5659-3.6477c4.742 1.2159 125.72 26.75 125.72 26.75l5.5932-31.127 34.532 7.9034 10.214-56.539 30.641 7.9034 1.5807-8.9977-37.815-8.3897 0.60795-9.1193-5.5932-1.5807-2.5534 8.3897-159.04-35.14s-5.1068-2.9182-3.4045-8.8761l-4.0125-0.72953-0.12159 1.2159-3.5261-0.60795-17.387 15.32s-7.7818 1.2159-10.822-3.1614-33.802-38.301-33.802-38.301-4.0125-3.2829 0.36477-17.509l-2.675-0.72954-1.8239 10.7s-3.2829 3.6477-3.8909 1.5807c-0.60795-2.067-16.658-21.4-16.658-21.4s-2.2494-6.3835 2.4926-6.5659l9.0585 0.18239 0.85114-4.3772s-14.591-3.2221-16.354 3.0398l-3.7085 11.916-11.855 11.308 0.97272 2.7358-5.2892 6.5051s-7.4778 2.4926-11.186-2.675l-0.36477-55.445 3.7693-4.0733 131.93 30.215-3.3437 18.725 4.8636 1.1551 3.8909-18.725 165.79 37.936 1.1551 2.1278-0.97272 5.4716 3.2221 0.85113 1.3983-7.4778 19.819 4.742 2.675-11.612-69.246-14.834-264.22-57.634 18.36-116.54-2.4318-14.591-16.05 7.2954-9.7272 119.16 0.48636 64.686s-0.36477 7.9034-10.214 3.6477c-9.8488-4.2557-41.705-30.884-47.907-40.368-6.2011-9.484-52.162-64.2-52.162-64.2l24.44-21.278s0.91192-1.4591 2.5534-0.0608l5.35 7.417 8.0858-7.2954-5.9579-8.3289-2.7358-7.4778-2.675-1.0335-18.482 5.6539 2.0062 10.274-31.796 5.7147-7.0522 7.2954-4.742-4.0733-35.018 18.482 10.396 11.126 31.796-21.765s1.8238-1.7631 4.0125 0.18238c2.1886 1.9454 63.288 78.426 63.288 78.426l-11.126 10.457-5.9579-1.1551-6.1403 5.2284s3.4653 5.35-5.654 12.402l3.7085 4.8636s39.091-11.126 73.38 11.004c0 0 23.832 14.591 34.532 28.331z"
                    fill="#dedddc" />
                <path
                    d="m308.05 555.55s-1.0943-3.1006 1.9454-7.1738c3.0398-4.0733 21.825-25.595 21.825-25.595s2.8574-2.371 6.6875 0.0608l56.904 71.313s2.7358 2.1886 1.0335 5.2892l-7.8426 8.0858-1.8238-1.0335-1.9454 1.7023 1.5807 1.9454-15.503 14.408s-3.7085 1.9454-6.4443 0.30398c-2.7358-1.6415-56.418-69.306-56.418-69.306z"
                    fill="#fff" />
                <path
                    d="m383.98 637.38 3.2829-18.603 31.492-35.748s0.72954-2.3102 4.8636-1.4591 67.118 14.348 67.118 14.348l4.1341 13.861-4.3772 24.196 11.916 2.5534 4.1341-24.683-3.6477-0.97272 1.9454-10.7 95.813 23.589-1.9454 12.767-1.2159 0.85114-5.5932 33.559-36.599-8.1466-5.35 31.735-131.32-28.087s-31.978-4.3772-34.653-29.06z"
                    fill="#fff" />
            </g>
            <g stroke="#000">
                <path d="m354.56 477.36 6.0795-38.179 38.666 8.9977-6.0795 37.693z" fill="#c9c92e" />
                <path d="m603.57 564.67-7.5386 41.098-156.61-34.775 6.0795-42.8z" fill="#c9c92e" />
                <path
                    d="m312.44 428.34 1.5476-11.177 38.862 7.9099 8.5977-64.827 12.553 2.2354-8.9416 62.076 36.97 7.394-2.9232 16.164-38.518-8.9416-5.8464 37.658-11.865-1.8915 6.3623-38.002z"
                    fill="url(#pattern28)" />
            </g>
        </g>
        <g id="budynki" stroke="#000">
            <g fill="#c9c92e">
                <path id="7A" d="m361.85 358.45-9.2409 66.631-39.152-8.2681 8.5113-65.416z" />
                <g>
                    <path id="8A" d="m304.46 468.37 37.936 8.2681 6.8091-39.638-37.207-8.2681z" />
                    <path id="5A" d="m373.04 556.4 8.5113-43.529 52.527 13.618-6.809 42.8z" />
                    <path id="WTC_North_Entrance" d="m631.05 615 9.9704-50.582-35.504-9.7272-9.2409 49.609z" />
                    <path id="6A" d="m629.59 530.86 2.9182-17.509 4.3772 0.97272 1.7023-10.214-66.145-14.104-4.3772 26.993z" />
                    <path id="6C" d="m460.1 465.45 56.661 12.645-7.5386 37.693-56.661-11.916z" />
                    <path id="6B" d="m572.69 490.25-6.3227 37.45-57.147-12.159 7.2954-37.693z" />
                    <path d="m403.75 432.29 10.145-65.687-39.893-6.8782-8.9416 64.827z" />
                </g>
                <ellipse id="11-iglica" cx="411.66" cy="636.32" rx="22.851" ry="24.657" stroke-width="1.0379" />
            </g>
            <path
                d="m345.8 597.25 3.1613-2.4318 22.028 27.226 8.8557-8.1678 1.5476 1.9775 5.8465-5.7605-1.5476-2.2354 7.652-7.1361-21.838-27.599 2.8372-2.2354-9.4575-11.607-2.4933 2.6653-21.494-26.911-8.1678 7.2221-1.3756-1.1177-5.9324 5.2446 1.5476 2.1494-8.3398 7.9099 21.666 27.169-2.6653 2.5793z"
                fill="none" />
            <path d="m504.86 636.92 4.8147-25.449 89.072 19.947-4.1269 25.105z" fill="#c9c92e" />
            <path id="3_3A"
                d="m566.37 682.36 61.646 13.132-10.943 62.497 2.1886-0.12159-4.1341 20.914-56.175-12.037 0.97272-5.5932-26.871-5.5932 0.24318 1.8238-8.1465-1.5807 0.24318-1.9454-16.536-3.5261-0.12159 1.7023-7.417-1.3375-0.12159-1.5807-19.333-4.1341 0.12159 2.067-42.313-18.239 10.943-38.787 110.53 23.832z"
                fill="#c9c92e" />
            <path id="centrum_targowe"
                d="m323.27 686.1 19.173-19.345-3.3531-4.2129 9.8874-9.6295-7.1361-7.9099-1.6336 2.2354-12.295-14.014-16.164 17.109-6.3623-7.0501-9.7154 10.317 9.8874 12.037 1.1177 5.0727 2.8372 3.2671 4.7288 1.5476z"
                fill="none" />
            <path
                d="m283.04 637.61 22.182-21.15-62.248-76.348-14.96 13.928-11.177-13.069-6.1904 5.5026 11.177 13.412-1.7196 1.5476z"
                fill="none" />
            <g>
                <path id="PCC"
                    d="m238.33 491.27 22.182-20.119 3.4391 4.6428 6.0184-5.5025-3.4391-4.4708 1.5476-25.793-6.5343-7.566 6.1904-6.3623-6.1904-8.5977 3.611-14.444-4.4708-17.367-60.872 54.338z"
                    fill="#c9c92e" />
                <path id="unknown" transform="translate(71.346 306.77)"
                    d="m275.4 214.91 22.312 4.6812 3.4045-19.211-22.433-4.6204z" fill="#fff" />
                <path id="GCC" d="m294.07 390.37-33.316-4.4988 4.6204 17.266 26.811 3.5869z" fill="#c9c92e" />
            </g>
            <path
                d="m136.26 457.54 59.458 73.197 6.5659-6.3227-3.8909-4.742 14.104-13.01 4.2557 4.6204 6.4443-6.2011-60.066-73.319-6.3227 6.4443 3.4045 4.0125-13.983 13.497-3.5261-4.2557z"
                fill="none" />
            <path id="East_Entrance"
                d="m441.15 723.33-7.9959-2.0634 2.1494-8.7697-79.099-18.055 3.869-22.096 20.205 4.3848-0.42989 3.0092 59.582 14.272-0.086-1.5476 9.8874 2.1494z"
                fill="#c9c92e" />
        </g>
        <g id="ogrodzenie_obiektu" fill="none" stroke="#000">
            <path
                d="m116.48 433.23-2.7966-3.0398 5.4716-4.2557-7.0522-8.7545s71.495-38.787 169.01-47.299l-2.4318-23.345 21.4-4.6204s2.5534-1.8238 4.0125 4.1341" />
            <path
                d="m313.65 346.66 1.5476-0.17195 1.0317-8.5118 10.919-2.5793 100.16 13.67-11.693 103.95 222.51 47.631s5.3306 1.2037 3.869 6.6203c-1.4616 5.4166-6.9642 35.509-6.9642 35.509" />
            <path d="m633.22 552.23-1.0317 6.2763" />
            <path d="m629.1 614.48-0.60184 3.697 10.575 2.3214-0.68781 3.955" />
            <path d="m637.26 633.48-10.661 61.646" />
            <path d="m356.55 691.34-25.621-12.983" />
            <path d="m297.22 640.7 4.2989 6.7922" />
            <path d="m290.35 630.82 3.4391 5.0727" />
            <path d="m200.84 534.09 10.059 11.693" />
            <path d="m127.76 444.76 7.3081 9.1136" />
        </g>
    </g>
</svg>